<?xml version="1.0" standalone="no"?>
<!DOCTYPE svg PUBLIC "-//W3C//DTD SVG 20010904//EN"
 "http://www.w3.org/TR/2001/REC-SVG-20010904/DTD/svg10.dtd">
<svg version="1.0" xmlns="http://www.w3.org/2000/svg"
 width="987.000000pt" height="987.000000pt" viewBox="0 0 987.000000 987.000000"
 preserveAspectRatio="xMidYMid meet">
<metadata>
Created by potrace 1.14, written by Peter Selinger 2001-2017
</metadata>
<g transform="translate(0.000000,987.000000) scale(0.100000,-0.100000)"
fill="#000000" stroke="none">
<path d="M4659 9866 c-2 -2 -51 -6 -109 -10 -110 -7 -117 -8 -295 -32 -110
-14 -148 -20 -195 -29 -55 -11 -76 -15 -100 -20 -21 -4 -156 -34 -222 -50
-203 -47 -556 -166 -743 -250 -27 -12 -79 -35 -115 -51 -99 -43 -334 -165
-440 -227 -152 -89 -447 -291 -556 -380 -11 -9 -39 -32 -64 -52 -470 -380
-897 -888 -1196 -1425 -255 -456 -424 -915 -528 -1435 -33 -164 -38 -190 -52
-300 -3 -27 -8 -53 -11 -57 -2 -5 495 -8 1105 -8 l1110 0 15 -32 c8 -18 92
-199 187 -403 95 -203 196 -421 226 -483 30 -62 54 -115 54 -117 0 -2 31 -70
70 -151 38 -80 70 -148 70 -149 0 -2 34 -74 75 -160 41 -87 75 -159 75 -160 0
-2 25 -56 55 -120 31 -65 65 -139 77 -164 11 -25 61 -131 109 -234 49 -104 89
-190 89 -192 0 -2 32 -69 70 -150 39 -81 70 -148 70 -150 0 -2 32 -69 70 -150
39 -81 70 -148 70 -150 0 -2 44 -97 151 -323 27 -57 49 -105 49 -107 0 -2 31
-68 68 -147 37 -79 80 -168 94 -198 l25 -55 41 85 c22 47 86 184 142 305 56
121 119 256 140 300 21 44 65 139 98 210 76 165 116 250 186 398 31 65 56 120
56 122 0 2 29 63 64 137 64 135 108 229 153 328 14 30 38 82 53 115 91 193
135 287 250 535 70 151 148 318 173 370 24 52 90 192 145 311 55 119 119 256
142 305 83 177 98 211 142 304 24 52 51 110 59 128 7 17 17 32 20 32 3 0 22
-35 42 -77 42 -92 115 -248 164 -353 20 -41 48 -102 63 -135 15 -33 44 -95 64
-137 20 -43 51 -111 70 -150 18 -40 64 -138 101 -218 133 -284 148 -317 210
-450 34 -74 88 -188 119 -254 31 -65 56 -120 56 -121 0 -1 27 -61 61 -131 34
-71 84 -178 111 -239 27 -60 54 -114 58 -119 5 -5 348 -8 769 -8 419 0 761 -2
761 -4 0 -3 -4 -12 -9 -22 -6 -9 -35 -69 -67 -132 -234 -475 -583 -915 -1000
-1264 -405 -338 -880 -595 -1374 -745 -58 -17 -114 -33 -125 -36 -11 -3 -47
-11 -80 -20 -33 -8 -73 -17 -90 -21 -16 -3 -50 -10 -75 -15 -69 -16 -198 -37
-264 -44 -33 -3 -62 -8 -65 -9 -3 -2 -58 -8 -121 -12 -207 -15 -656 -9 -756
10 -10 2 -48 7 -84 11 -36 4 -67 8 -70 10 -3 2 -27 6 -55 9 -148 19 -439 92
-640 161 -705 241 -1364 712 -1818 1299 -43 55 -84 108 -91 117 -31 37 -187
281 -233 364 -222 395 -384 846 -452 1255 -19 114 -21 124 -27 175 -3 28 -7
64 -9 80 -13 96 -20 257 -20 453 l1 222 -503 0 -504 0 5 -312 c3 -172 8 -326
10 -343 3 -16 8 -59 11 -95 6 -64 15 -140 20 -170 1 -8 6 -40 10 -70 10 -82
15 -111 25 -150 5 -19 11 -51 14 -70 11 -68 17 -97 57 -255 35 -138 142 -480
169 -540 5 -11 37 -87 71 -170 61 -146 195 -417 244 -496 14 -21 25 -41 25
-44 0 -8 145 -239 198 -315 48 -69 212 -292 222 -300 3 -3 25 -30 50 -60 25
-30 47 -57 50 -60 3 -3 34 -39 70 -80 36 -41 119 -129 185 -195 107 -106 149
-146 270 -254 416 -371 996 -709 1567 -915 267 -96 567 -175 828 -216 41 -7
84 -14 95 -16 41 -8 72 -12 140 -19 39 -4 79 -9 89 -11 134 -26 859 -25 1016
1 14 2 57 6 95 10 39 3 77 8 85 10 8 2 33 6 55 10 66 9 107 16 180 30 39 8 86
17 105 20 186 32 595 158 842 258 813 333 1528 882 2069 1592 289 380 522 805
693 1265 44 118 76 211 76 220 -1 3 9 32 20 65 18 53 47 154 55 195 2 8 10 42
19 75 39 152 108 540 99 558 -2 4 -494 7 -1094 7 -643 0 -1089 4 -1089 9 0 5
-31 75 -70 156 -38 81 -70 148 -70 150 0 2 -29 65 -65 140 -36 75 -65 138 -65
140 0 1 -24 54 -54 117 -30 63 -70 149 -90 191 -39 84 -86 185 -142 305 -20
42 -49 104 -64 137 -15 33 -47 101 -70 150 -47 100 -93 200 -135 290 -15 33
-54 116 -86 184 -33 68 -59 125 -59 126 0 2 -25 56 -56 121 -50 106 -134 287
-207 444 -14 30 -45 98 -70 150 -24 52 -54 116 -66 142 -11 26 -50 108 -86
183 -36 75 -65 138 -65 140 0 1 -28 63 -63 136 -35 74 -90 191 -122 262 -32
70 -61 127 -65 127 -3 0 -17 -24 -30 -52 -13 -29 -46 -100 -73 -158 -27 -58
-91 -195 -142 -305 -51 -110 -113 -243 -138 -295 -24 -52 -56 -120 -70 -150
-13 -30 -44 -95 -67 -145 -23 -49 -70 -151 -105 -225 -34 -74 -86 -184 -114
-244 -28 -59 -51 -110 -51 -111 0 -2 -29 -63 -64 -136 -35 -74 -103 -219 -151
-324 -48 -104 -116 -250 -151 -324 -35 -73 -64 -135 -64 -137 0 -2 -22 -50
-49 -106 -27 -57 -58 -123 -69 -148 -11 -25 -50 -107 -86 -184 -36 -76 -66
-140 -66 -141 0 -2 -31 -69 -70 -150 -38 -81 -70 -148 -70 -150 0 -2 -37 -82
-157 -335 -25 -52 -52 -112 -60 -133 -8 -20 -18 -37 -22 -37 -6 0 -38 65 -124
250 -57 122 -240 515 -280 600 -16 36 -54 116 -84 179 -29 62 -53 115 -53 116
0 2 -32 69 -70 150 -38 81 -70 148 -70 150 0 1 -27 61 -61 131 -34 71 -81 172
-104 224 -24 52 -95 205 -158 340 l-116 245 -770 3 c-510 1 -771 6 -771 12 0
15 110 232 175 346 48 83 190 305 218 339 4 6 33 44 64 85 32 41 60 77 63 80
3 3 23 27 45 55 200 248 538 552 825 742 63 41 126 83 140 93 100 68 422 229
595 298 145 58 389 138 475 157 8 2 42 10 75 18 88 23 297 61 400 73 33 3 69
8 80 10 98 18 560 25 740 11 467 -37 922 -157 1349 -356 49 -23 89 -41 91 -41
2 0 68 -36 224 -122 118 -66 340 -217 464 -316 606 -485 1054 -1122 1292
-1837 29 -86 80 -259 90 -305 37 -165 69 -338 81 -435 3 -33 8 -69 10 -80 10
-51 19 -250 19 -448 l0 -217 503 0 503 0 -5 303 c-3 166 -7 320 -10 342 -3 22
-7 65 -11 95 -11 110 -18 165 -21 182 -1 9 -6 38 -10 65 -3 26 -8 57 -10 68
-24 131 -34 180 -38 200 -1 6 -8 37 -15 70 -7 33 -28 116 -46 185 -184 693
-525 1347 -994 1905 -241 287 -552 578 -856 801 -566 415 -1225 710 -1900 849
-44 10 -89 19 -100 21 -11 2 -36 7 -55 10 -19 2 -57 9 -85 14 -27 5 -75 12
-105 16 -30 3 -62 8 -71 9 -8 2 -53 6 -100 10 -46 4 -93 9 -104 12 -23 6 -670
15 -676 9z"/>
</g>
</svg>
