<?xml version="1.0" encoding="UTF-8"?>
<svg id="Layer_1" data-name="Layer 1" xmlns="http://www.w3.org/2000/svg" viewBox="0 0 398.56 107.76">
  <defs>
    <style>
      .cls-1 {
        fill: #8e9f7d;
      }
    </style>
  </defs>
  <g>
    <path class="cls-1" d="M40.32,11.27c1.68,4.48,2.35,9.07,2.69,13.78,.34,5.94-.34,11.87-1.23,17.81-1.12,8.06-2.46,16.24-3.47,24.3-1.79,13.89-2.24,19.6-2.02,25.31,0,2.35,.56,4.59,1.46,6.83,.56,1.57,1.68,2.8,3.02,3.7,3.14,1.9,6.61,1.12,8.4-2.13,.56-.78,.78-1.68,.45-2.58-.22-1.12,0-2.02,.45-2.13,.56-.22,1.46,.56,1.79,1.46,.22,.78,.22,1.57,0,2.35-.45,1.68-1.12,3.36-2.24,4.82-1.9,2.8-4.93,3.7-7.95,2.35-3.25-1.46-5.71-3.81-7.5-6.83-2.24-3.92-3.7-8.06-4.59-12.54-1.12-5.82-.45-20.05-.22-25.98,.34-5.82,1.23-11.54,2.24-17.25,1.01-6.27,2.46-12.66,3.7-18.93,.78-4.37,1.12-8.62,1.01-12.99,0-.78-.11-1.57-.22-2.46-.22-1.12-.9-1.68-2.02-1.9-7.5-1.57-14.78-.78-22.06,1.68-2.02,.78-3.92,1.68-5.82,2.69-1.79,1.01-3.25,2.24-4.48,3.81-.22,.34-.45,.67-1.01,.56-.45-.22-.67-.67-.67-1.12,0-.9,.45-1.68,1.01-2.35,1.68-2.58,3.81-4.59,6.16-6.5,3.58-2.8,7.5-4.82,11.87-6.05,5.6-1.57,11.09-1.12,16.46,.56,4.59,1.34,8.85,3.47,13.1,5.71,4.59,2.58,9.41,4.93,14.45,6.61,3.47,1.23,7.06,1.68,10.75,1.34,1.79-.11,3.36-.67,4.93-1.57,2.13-1.34,2.8-3.47,2.02-5.38-.67-1.68-2.02-2.24-3.58-2.46-1.57-.11-3.14,.11-4.59,.56-1.46,.56-2.91,1.01-4.37,1.68-4.26,2.02-8.4,1.46-12.54-.34-.9-.45-1.68-.9-2.35-1.68-.45-.56-.9-1.12-1.01-1.79-.11-.45-.34-1.01,.11-1.23,.45-.34,.78,.11,1.12,.34,1.46,1.34,3.36,1.34,5.15,1.01s3.36-1.12,4.93-1.79c4.03-1.57,8.06-1.57,11.98-.22,3.47,1.12,6.05,3.25,7.28,6.83,1.46,4.37-.34,8.96-4.48,11.09-3.81,2.02-7.84,2.24-11.98,1.34-3.14-.67-6.27-1.79-9.18-3.14-2.69-1.23-5.38-2.69-7.95-4.14-2.58-1.34-5.15-2.58-7.84-3.7-.45-.22-.78-.45-1.23-.34-.22,.45,0,.67,.11,1.01Z"/>
    <path class="cls-1" d="M61.82,38.6c.22,.22,.34,.56,.56,.9,.22,.56,.56,.45,.9,0,.45-.45,.78-.9,1.34-1.34,1.9-1.57,3.7-1.46,5.04,.11,1.46,1.68,1.34,4.14-.34,5.71-.45,.34-1.01,.78-1.46,1.01-1.34,.9-2.8,1.68-3.92,2.8-.67,.56-1.12,.56-1.79,0-.22-.22-.34-.45-.56-.67-1.01-1.46-2.13-2.69-3.47-3.7-1.01-.78-1.9-1.79-2.35-3.02-.56-2.02,.67-3.7,3.14-3.7,1.12,0,2.13,.67,2.91,1.9Zm-4.59,13.22c.56-2.35,1.34-2.58,3.25-1.23,1.46,1.01,2.46,2.24,3.02,4.03,.67,2.58,.56,5.26,.34,7.84-.34,3.02-.9,6.05-1.01,9.07v3.36c0,.78,.11,1.46,.45,2.13,.56,1.12,1.34,1.34,2.46,.78,.56-.34,1.12-.9,1.57-1.46,1.79-2.46,3.25-5.15,4.59-7.84,.22-.45,.34-1.01,.67-1.34,.22-.56,.34-1.68,1.12-1.34,.56,.22,0,1.12-.22,1.57-.9,2.13-1.9,4.14-2.8,6.27-.45,.9-1.01,1.9-1.46,2.91-.56,1.01-1.12,1.9-1.9,2.8-1.34,1.46-2.69,1.57-4.26,.45-.78-.56-1.34-1.23-1.9-2.02-1.68-2.58-2.69-5.49-3.25-8.4-.78-3.92-1.23-7.84-1.12-11.87,.11-1.9,0-3.81,.45-5.71Zm3.92-12.1c-.34-.67-.78-.78-1.46-.78-.67,.11-1.12,.56-1.46,1.12-.22,.34,0,.56,.22,.67,1.01,.78,2.02,1.68,3.14,2.8,.22-1.46,0-2.69-.45-3.81Zm3.02,3.7c1.12-1.01,2.46-2.02,3.36-3.7-2.02,.67-2.8,2.02-3.36,3.7Z"/>
    <path class="cls-1" d="M96.09,65.03c-2.8,3.7-4.37,7.84-4.7,12.43-.11,.56,.11,1.34-.56,1.57-.78,.22-1.12-.56-1.34-1.12-1.9-4.37-3.02-8.74-3.25-13.44-.11-4.26,.45-8.4,1.46-12.43,.22-.56,.45-1.12,.22-1.79-.78,0-1.12,.67-1.57,1.12-1.23,1.46-1.9,3.25-2.58,5.04-1.34,4.03-2.02,8.06-2.69,12.21-.45,3.47-.9,6.94-1.34,10.42-.11,.67-.22,1.23-.45,1.79-.34,.9-.78,1.01-1.57,.45-.56-.45-.9-1.01-1.34-1.57-1.68-3.02-2.91-6.16-3.7-9.52-.78-4.14-1.23-8.4-1.01-12.77,.11-1.9,.34-3.81,.67-5.71,.11-.34,.22-.67,.34-.9,.34-.9,.67-1.01,1.57-.67,1.79,.9,3.36,2.13,4.26,3.92,1.12,2.13,1.46,4.37,1.01,6.72-.45,2.58-1.01,5.15-1.34,7.73-.34,2.58-.67,5.26-.34,7.95,.11,.22,0,.45,.45,.67,.45-1.34,.56-2.58,.78-3.92,.9-5.82,2.02-11.65,3.7-17.36,.67-2.24,1.46-4.48,2.58-6.61,.45-.78,.9-1.57,1.57-2.24,1.01-1.01,1.79-1.12,2.91-.34,1.46,1.01,2.46,2.46,2.91,4.14,.67,1.9,.78,3.92,.78,5.82,0,3.36-.56,6.61-1.23,9.74-.11,.78-.34,1.57-.34,2.24,1.01-1.68,1.79-3.36,2.8-5.04,1.34-2.24,3.02-4.26,4.37-6.38,.56-.78,.9-.9,1.79-.34,1.68,.9,2.69,2.24,3.36,4.03,1.01,3.02,1.23,6.16,.56,9.41-.45,2.58-.9,5.04-1.34,7.62-.34,1.79-.34,3.58,.22,5.38,.67,1.9,2.02,2.58,4.03,1.79,1.68-.56,2.91-1.79,3.92-3.36,1.12-1.57,1.9-3.36,2.69-5.15,1.01-2.35,2.02-4.7,2.8-7.17,.22-1.01,.78-2.02,1.34-2.91,.11-.22,.22-.56,.56-.45,.34,.11,.22,.45,.22,.67-1.68,5.38-3.36,10.64-6.16,15.57-1.01,1.68-2.24,3.14-3.81,4.26-2.13,1.34-4.03,1.23-5.82-.45-1.57-1.46-2.35-3.14-3.02-5.04-1.12-3.14-1.68-6.27-1.79-9.63-.11-2.91,.11-5.82,.45-8.85,0-.11-.11-.11-.22-.34-1.12,.78-2.02,1.68-2.8,2.8Z"/>
    <path class="cls-1" d="M119.39,55.96c1.46-2.58,3.58-4.37,6.38-5.38,1.57-.67,3.25-.67,4.93-.11,1.57,.45,2.91,1.34,4.14,2.46,2.02,2.02,2.8,4.48,2.24,7.39-.56,2.58-1.68,4.93-3.7,6.72-2.13,1.79-4.37,2.46-6.94,1.01-1.01-.45-1.12-.45-1.57,.67-.67,1.68-1.23,3.36-1.68,5.15-1.23,4.14,1.68,6.16,4.93,6.38,1.79,.11,3.36-.34,4.93-1.01,3.81-1.79,6.83-4.48,9.63-7.62,1.57-1.79,3.02-3.7,4.59-5.49,.22-.34,.56-1.01,1.12-.67,.56,.45,0,1.01-.22,1.34-2.58,3.25-4.93,6.61-7.95,9.52-1.68,1.68-3.58,3.02-5.6,4.26-1.12,.56-2.13,1.01-3.25,1.34-3.81,1.23-6.94,.78-10.08-3.02-2.35-2.69-3.36-6.05-3.92-9.63-.22-1.46-.34-2.91-.22-4.14,0-3.36,.67-6.38,2.24-9.18Zm16.35,.9c-.45-1.12-1.01-1.34-2.13-.9-.67,.34-1.34,.67-1.79,1.23-2.35,2.35-3.81,5.15-5.38,8.06-.22,.56-.11,.9,.45,1.12,1.01,.34,1.9,.56,3.02,.34,3.92-.78,6.05-4.59,6.27-7.73,0-.67-.22-1.46-.45-2.13Z"/>
    <path class="cls-1" d="M187.46,52.3c-2.59,.56-5.25,1.19-7.84,1.68-1.12,.21-1.05,.21-1.19,1.26-.21,3.99-.42,7.98-.35,11.97,.07,4.2,.42,8.33,1.47,12.39,.35,1.4,.84,2.73,1.68,3.92,.91,1.26,1.96,1.33,2.94,.14,.84-.84,1.26-1.96,1.68-3.08,.42-1.54,.84-3.01,1.33-4.55,.07-.28,.21-.63,.28-.91,.07-.14,.21-.28,.42-.28,.21,.07,.28,.21,.35,.42,0,.14,0,.28-.07,.35-.56,2.8-1.26,5.6-2.73,8.12-.35,.49-.7,.98-1.12,1.4-.91,.84-1.68,.98-2.66,.35-.77-.42-1.33-1.12-1.89-1.75-1.47-1.96-2.38-4.27-3.15-6.58-1.19-3.78-1.82-7.63-2.45-11.55-.49-3.15-.56-6.37-.7-9.52-.07-.98-.14-1.05-1.19-.98-2.38,.35-4.83,.63-7.28,.49-2.59-.14-5.18-.49-7.42-2.03-2.94-1.89-4.06-4.9-3.29-8.33,.49-1.96,1.4-3.71,2.59-5.25,3.92-5.11,9.03-8.26,15.19-9.73,3.08-.7,6.23-1.05,9.31-.35,5.04,1.12,8.54,3.99,10.43,8.82,.56,1.4,.91,2.87,.98,4.41,.07,1.33-.14,2.59-.42,3.92-.14,.98-.14,.91,.84,1.05,2.73,.21,5.11,.98,7,3.01,1.75,1.75,1.61,3.57,.84,5.67-.07,.28-.21,.56-.56,.49-.35-.14-.42-.42-.35-.77,0-.21,.14-.42,.21-.63,.14-.63,.28-1.26,.28-1.96,0-1.12-.49-1.96-1.47-2.45-.84-.42-1.68-.56-2.52-.63-1.75-.07-3.43,.14-5.11,.49-.56,.14-.91,.42-1.12,.84-.7,1.12-1.61,2.03-2.52,2.94-1.47,1.4-3.29,1.89-5.11,2.38-.14,.07-.35,.07-.56,0-.14,0-.28-.14-.28-.35s.14-.28,.28-.35c.63-.21,1.26-.49,1.89-.77,1.68-.7,2.94-2.03,3.99-3.64-.28-.21-.49-.14-.63-.07Zm-14.77-20.02c-5.04,.84-9.45,3.01-13.09,6.72-2.17,2.31-3.85,4.9-4.27,8.12-.28,2.24,.7,4.13,2.59,4.9,.49,.14,.98,.35,1.47,.42,1.82,.42,3.71,.42,5.6,.28,2.59-.21,5.11-.63,7.7-1.12,.7-.21,.77-.21,.77-.98,.07-1.4,.14-2.73,.28-4.13,.21-2.59,.49-5.11,1.12-7.63,.21-.91,.49-1.82,.98-2.59,.42-.63,.7-.7,1.33-.42,1.33,.7,2.17,1.68,2.45,3.15,.21,1.12,.28,2.17,.14,3.29-.28,2.31-.49,4.69-.77,7-.07,.84,.07,.91,.84,.77,3.15-.7,6.3-1.4,9.52-1.82,.42-.07,.77-.28,.91-.7,.56-2.17,.91-4.41,.56-6.58-.7-3.71-2.73-6.44-6.3-7.91-2.17-.91-4.48-1.26-6.86-1.19-1.68-.07-3.36,.14-4.97,.42Z"/>
    <path class="cls-1" d="M200.33,77.01c-.14,.77,0,.91,.7,.77,2.24-.35,4.34-1.12,6.37-2.17,.35-.21,.77-.35,1.12-.49,.21-.07,.42-.07,.49,.14,.07,.21,0,.28-.14,.42-.14,.07-.21,.14-.35,.21-2.24,1.26-4.62,2.24-7.14,2.66-.14,.07-.35,.07-.49,.07-.7,.07-1.12,.42-1.4,1.12-.56,1.61-1.47,2.94-2.8,4.06-1.89,1.75-4.13,1.75-6.02,.14-1.12-.98-1.82-2.1-2.31-3.43-.42-.98-.7-1.96-.84-3.01-.14-.7-.35-1.19-.91-1.61-1.54-1.33-2.45-3.01-2.66-5.11-.35-3.43,2.17-8.05,7-8.4,3.99-.28,6.79,1.61,8.54,5.04,.98,1.96,1.33,4.06,1.26,6.37,0,1.05-.21,2.17-.42,3.22Zm-13.16-2.8c-.21-1.26,0-2.45,.14-3.64,.14-.84,.35-1.68,.84-2.45,.49-.7,.91-.77,1.61-.42,1.96,.98,2.87,2.87,2.38,5.04-.28,1.26-.7,2.52-1.05,3.78-.21,.91-.14,.98,.77,1.19,2.17,.49,4.34,.7,6.65,.42,.42-.07,.7-.28,.77-.7,1.05-3.36,1.12-6.72-.35-10.01-1.75-3.57-5.46-5.11-9.1-3.99-3.29,1.05-5.53,4.41-5.11,7.84,.14,1.61,.98,2.94,2.31,4.13,.28-.56,.21-.91,.14-1.19Zm11.27,5.18c.14-.35-.07-.42-.42-.42-2.24,.07-4.48,0-6.65-.63-.42-.07-.63,.07-.7,.49-.07,.7-.07,1.4,.07,2.1,.14,1.12,.84,1.75,1.89,1.89,.28,.07,.63,.07,.7,.07,2.1,0,4.41-1.61,5.11-3.5Z"/>
    <path class="cls-1" d="M239.84,65.81c-8.51-1.46-19.38-9.52-20.94-24.08-.67-5.82,.34-11.2,3.02-16.24,3.92-7.73,9.18-14,16.02-18.82,3.25-2.24,6.83-4.14,10.75-4.93,5.71-1.12,11.09-.22,16.35,2.35,5.26,2.58,8.85,6.83,10.98,12.77,3.36,9.07,2.91,18.03-.56,27.1-.9,2.13-2.13,3.92-3.7,5.38-1.46,1.23-2.91,1.46-4.59,.45-2.58-1.57-4.14-4.14-4.93-7.28-1.68-5.6-1.34-11.2,.67-16.8,.67-1.68,1.34-3.25,2.02-4.93,.78-1.57,.9-3.02,0-4.59l-.11-.11c-.22-.56-.78-1.34-.22-1.79,.67-.45,1.12,.34,1.57,.67,1.79,1.9,2.8,4.37,3.47,6.94,.78,3.02,.67,6.05,.34,9.07-.34,4.37-1.01,8.62-2.02,12.88-.11,.67-.56,1.57,.11,2.02,.56,.56,1.34,.11,2.02-.22,1.57-.78,2.58-2.13,3.36-3.58,1.01-2.02,1.57-4.14,1.9-6.27,.67-4.26,.9-8.51,.34-12.77-.45-3.47-1.68-6.72-3.36-9.74-1.68-3.25-4.37-5.15-7.5-6.38-7.73-3.02-15.01-2.02-21.84,3.36-5.15,4.03-9.18,9.18-12.32,15.23-2.24,4.37-4.14,8.85-4.93,13.78-.34,2.24-.67,4.59-.34,6.83,.67,3.92,2.35,6.83,5.71,8.4,2.8,1.23,5.71,1.79,8.62,2.35,4.03,.78,8.18,1.23,12.21,1.68,5.15,.67,10.08,1.57,14.9,3.7,2.24,1.01,4.26,2.46,6.05,4.37,4.48,4.59,5.6,10.3,3.25,16.46-4.26,11.65-12.21,18.48-23.52,20.5-1.57,.34-3.14,.22-4.59-.34-1.12-.34-2.13-1.01-2.8-1.9-.9-1.23-1.34-2.69-.9-4.26,.45-2.13,1.34-3.92,2.58-5.49,1.79-2.58,3.7-5.04,5.82-7.28,1.68-1.9,3.02-4.14,4.37-6.38,.34-.67,.56-1.34,.56-2.24,0-.34,0-.78,.45-1.01,.45-.22,.78,.11,1.12,.34,.78,.78,.9,1.68,.9,2.8-.22,2.46-.78,4.93-2.13,7.17-1.12,1.68-2.35,3.36-3.7,4.93-1.57,1.68-3.14,3.47-4.59,5.26-.78,.9-1.46,1.9-2.02,3.02-.34,.9-.22,1.12,.67,1.12,1.23,.11,2.58-.22,3.92-.56,6.38-2.13,11.65-6.05,15.57-11.98,1.9-2.8,3.36-5.71,4.48-8.96,.45-1.23,.67-2.46,.67-3.7,.11-2.91-.67-4.37-3.14-5.49-1.46-.67-3.02-1.12-4.7-1.46-3.36-.56-6.83-.78-10.3-.67h-2.91c-4.03,0-8.06,.11-12.1-.67Z"/>
    <path class="cls-1" d="M295.73,54.61c.9-1.46,1.9-2.8,3.14-3.92,1.23-1.01,2.02-1.12,3.36-.34,1.9,1.12,3.25,2.8,4.14,4.82,1.23,2.91,1.79,5.94,1.9,9.18,0,3.14,0,6.27-.45,9.41-.22,1.68-.11,3.47-.22,5.15,0,1.12,.34,2.13,.78,3.25,.9,2.02,3.14,2.58,4.93,1.23,.9-.67,1.34-1.46,1.79-2.35,1.34-2.24,2.13-4.7,2.91-7.28,.67-2.13,1.34-4.37,2.13-6.61,.11-.45,.22-1.23,.78-1.12,.67,.22,.34,.9,.22,1.34-1.12,4.37-2.24,8.74-4.03,12.88-.67,1.57-1.34,3.02-2.46,4.26-2.02,2.46-4.26,2.69-6.5,.67-2.24-1.9-3.36-4.48-4.26-7.06-1.01-2.8-1.46-5.71-1.68-8.74-.34-3.92-.45-7.95-.45-11.87,0-2.13-.22-2.58-2.58-1.57-2.13,.9-3.36,2.8-4.37,4.82-1.23,2.58-1.79,5.38-2.24,8.29-.67,3.81-.9,7.73-.9,11.54,.11,.67,.11,1.34,0,2.02-.11,.78-.45,.9-1.12,.56-.67-.34-1.23-.9-1.57-1.57-.78-1.23-1.34-2.69-1.79-4.03-2.02-6.05-3.25-12.32-4.14-18.59-1.57-11.54-2.02-23.3-1.57-34.94,.22-5.49,.9-10.86,2.24-16.24,.34-1.46,.67-2.8,1.34-4.03,.78-1.34,1.34-1.57,2.69-.9,2.13,1.12,3.58,2.8,4.03,5.15,.45,1.9,.56,3.7,.34,5.49-.34,3.47-.67,6.83-1.01,10.3-.34,3.14-.78,6.38-1.01,9.52-.34,5.71-.67,11.31-.56,17.02,.11,4.82,0,9.74,.34,14.56,.11,1.68,.22,3.25,.34,4.93,1.12-5.38,2.58-10.53,5.49-15.23Z"/>
    <path class="cls-1" d="M323.73,38.6c.22,.22,.34,.56,.56,.9,.22,.56,.56,.45,.9,0,.45-.45,.78-.9,1.34-1.34,1.9-1.57,3.7-1.46,5.04,.11,1.46,1.68,1.34,4.14-.34,5.71-.45,.34-1.01,.78-1.46,1.01-1.34,.9-2.8,1.68-3.92,2.8-.67,.56-1.12,.56-1.79,0-.22-.22-.34-.45-.56-.67-1.01-1.46-2.13-2.69-3.47-3.7-1.01-.78-1.9-1.79-2.35-3.02-.56-2.02,.67-3.7,3.14-3.7,1.12,0,2.13,.67,2.91,1.9Zm-4.59,13.22c.56-2.35,1.34-2.58,3.25-1.23,1.46,1.01,2.46,2.24,3.02,4.03,.67,2.58,.56,5.26,.34,7.84-.34,3.02-.9,6.05-1.01,9.07v3.36c0,.78,.11,1.46,.45,2.13,.56,1.12,1.34,1.34,2.46,.78,.56-.34,1.12-.9,1.57-1.46,1.79-2.46,3.25-5.15,4.59-7.84,.22-.45,.34-1.01,.67-1.34,.22-.56,.34-1.68,1.12-1.34,.56,.22,0,1.12-.22,1.57-.9,2.13-1.9,4.14-2.8,6.27-.45,.9-1.01,1.9-1.46,2.91-.56,1.01-1.12,1.9-1.9,2.8-1.34,1.46-2.69,1.57-4.26,.45-.78-.56-1.34-1.23-1.9-2.02-1.68-2.58-2.69-5.49-3.25-8.4-.78-3.92-1.23-7.84-1.12-11.87,.11-1.9,0-3.81,.45-5.71Zm3.92-12.1c-.34-.67-.78-.78-1.46-.78-.67,.11-1.12,.56-1.46,1.12-.22,.34,0,.56,.22,.67,1.01,.78,2.02,1.68,3.14,2.8,.22-1.46,0-2.69-.45-3.81Zm3.02,3.7c1.12-1.01,2.46-2.02,3.36-3.7-2.02,.67-2.8,2.02-3.36,3.7Z"/>
    <path class="cls-1" d="M368.87,67.38c-1.46,3.58-2.69,7.28-4.37,10.75-.78,1.46-1.68,2.91-2.69,4.26-.34,.45-.67,.78-1.01,1.12-1.23,1.01-2.35,1.12-3.7,.34s-2.24-1.9-2.91-3.25c-1.79-3.25-2.35-6.72-2.58-10.42-.22-5.15,.22-10.42,.9-15.57v-1.23c0-.9-.45-1.23-1.34-1.01-.9,.34-1.46,.9-2.02,1.57-1.12,1.46-1.57,3.02-2.02,4.7-.9,3.14-1.23,6.38-1.79,9.63-.45,3.14-1.01,6.27-2.02,9.3-.22,.67-.45,1.34-.78,2.02-.78,1.46-1.57,1.57-2.91,.56-.78-.67-1.46-1.46-2.02-2.35-1.46-2.35-2.24-4.82-2.8-7.39-1.01-4.48-1.46-8.96-1.34-13.55,.11-1.57,.34-3.02,.67-4.59,.11-.45,.22-.78,.45-1.23,.56-1.23,1.01-1.34,2.13-.9,2.46,1.23,3.92,3.02,4.48,5.71,.56,2.91,.78,5.82,.45,8.74-.34,3.02-.78,6.05-1.23,9.07-.22,1.68-.11,2.69,.34,3.7,.67-.22,.78-.9,1.01-1.46,1.12-2.24,1.46-4.7,1.9-7.28,.67-3.92,1.23-7.95,2.46-11.87,.67-2.35,1.68-4.7,3.36-6.61,2.35-2.58,3.14-2.91,5.94-.22,2.02,2.02,2.58,4.82,3.02,7.62,.56,4.59-.34,9.07-1.34,13.66-.34,2.13-.9,4.14-.9,6.38,0,.9,0,1.9,.34,2.8,.67,1.57,2.13,2.13,3.58,1.12,.9-.45,1.57-1.23,2.24-2.13,1.34-1.9,2.35-4.03,3.25-6.27,.9-1.9,1.68-3.81,2.46-5.82,.22-.34,.34-.9,.78-1.01,.34,.45,.11,.78,0,1.12Z"/>
    <path class="cls-1" d="M369.31,55.96c1.46-2.58,3.58-4.37,6.38-5.38,1.57-.67,3.25-.67,4.93-.11,1.57,.45,2.91,1.34,4.14,2.46,2.02,2.02,2.8,4.48,2.24,7.39-.56,2.58-1.68,4.93-3.7,6.72-2.13,1.79-4.37,2.46-6.94,1.01-1.01-.45-1.12-.45-1.57,.67-.67,1.68-1.23,3.36-1.68,5.15-1.23,4.14,1.68,6.16,4.93,6.38,1.79,.11,3.36-.34,4.93-1.01,3.81-1.79,6.83-4.48,9.63-7.62,1.57-1.79,3.02-3.7,4.59-5.49,.22-.34,.56-1.01,1.12-.67,.56,.45,0,1.01-.22,1.34-2.58,3.25-4.93,6.61-7.95,9.52-1.68,1.68-3.58,3.02-5.6,4.26-1.12,.56-2.13,1.01-3.25,1.34-3.81,1.23-6.94,.78-10.08-3.02-2.35-2.69-3.36-6.05-3.92-9.63-.22-1.46-.34-2.91-.22-4.14,0-3.36,.67-6.38,2.24-9.18Zm16.35,.9c-.45-1.12-1.01-1.34-2.13-.9-.67,.34-1.34,.67-1.79,1.23-2.35,2.35-3.81,5.15-5.38,8.06-.22,.56-.11,.9,.45,1.12,1.01,.34,1.9,.56,3.02,.34,3.92-.78,6.05-4.59,6.27-7.73,0-.67-.22-1.46-.45-2.13Z"/>
  </g>
  <g>
    <path class="cls-1" d="M70.6,92.87h3.46v9.24c0,1.21-.12,2.14-.38,2.79-.34,.85-.95,1.53-1.83,2.05-.88,.52-2.05,.77-3.49,.77-1.7,0-3-.4-3.91-1.21-.91-.81-1.38-1.99-1.38-3.55l3.27-.32c.04,.84,.18,1.43,.43,1.77,.38,.52,.95,.79,1.71,.79s1.32-.19,1.64-.56,.48-1.15,.48-2.34v-9.43Z"/>
    <path class="cls-1" d="M96.12,107.48h-3.77l-1.5-3.32h-6.87l-1.42,3.32h-3.68l6.69-14.6h3.67l6.88,14.6Zm-6.39-5.78l-2.37-5.42-2.32,5.42h4.69Z"/>
    <path class="cls-1" d="M100.88,107.48v-14.6h3.38l7.03,9.75v-9.75h3.22v14.6h-3.48l-6.93-9.52v9.52h-3.22Z"/>
    <path class="cls-1" d="M120.95,107.48v-14.6h3.47v14.6h-3.47Z"/>
    <path class="cls-1" d="M134.47,107.48v-12.13h-5.1v-2.47h13.65v2.47h-5.09v12.13h-3.47Z"/>
    <path class="cls-1" d="M147.01,100.26c0-1.49,.26-2.74,.79-3.75,.39-.74,.92-1.41,1.6-2s1.42-1.03,2.22-1.32c1.07-.38,2.3-.58,3.7-.58,2.53,0,4.56,.67,6.08,2s2.28,3.19,2.28,5.57-.75,4.2-2.26,5.53-3.52,2-6.05,2-4.59-.66-6.09-1.99-2.26-3.15-2.26-5.47Zm3.57-.1c0,1.65,.45,2.91,1.35,3.76s2.04,1.28,3.42,1.28,2.52-.42,3.4-1.27,1.33-2.12,1.33-3.81-.43-2.92-1.29-3.75-2.01-1.24-3.44-1.24-2.58,.42-3.46,1.25c-.88,.83-1.31,2.09-1.31,3.77Z"/>
    <path class="cls-1" d="M169.27,107.48v-14.6h7.3c1.84,0,3.17,.13,4,.39,.83,.26,1.5,.73,2,1.4s.75,1.44,.75,2.3c0,1.1-.38,2-1.14,2.71-.76,.71-1.89,1.16-3.4,1.35,.75,.37,1.37,.78,1.86,1.22,.49,.45,1.15,1.24,1.97,2.37l2.1,2.85h-4.15l-2.51-3.18c-.89-1.14-1.5-1.85-1.83-2.15-.33-.29-.68-.5-1.04-.61s-.95-.16-1.75-.16h-.7v6.1h-3.47Zm3.47-8.43h2.57c1.66,0,2.7-.06,3.12-.18,.41-.12,.74-.33,.97-.62s.35-.66,.35-1.1c0-.49-.15-.89-.46-1.19s-.74-.49-1.31-.57c-.28-.03-1.12-.05-2.53-.05h-2.71v3.71Z"/>
    <path class="cls-1" d="M189.36,107.48v-14.6h3.47v14.6h-3.47Z"/>
    <path class="cls-1" d="M214.51,107.48h-3.77l-1.5-3.32h-6.87l-1.42,3.32h-3.68l6.69-14.6h3.67l6.88,14.6Zm-6.39-5.78l-2.37-5.42-2.32,5.42h4.69Z"/>
    <path class="cls-1" d="M219.32,107.48v-14.48h3.47v12.02h8.62v2.46h-12.09Z"/>
  </g>
  <g>
    <path class="cls-1" d="M301.09,107.48v-14.6h3.47v14.6h-3.47Z"/>
    <path class="cls-1" d="M310.78,107.48v-14.6h3.38l7.03,9.75v-9.75h3.22v14.6h-3.48l-6.93-9.52v9.52h-3.22Z"/>
    <path class="cls-1" d="M341.95,102.11l3.36,.91c-.52,1.59-1.37,2.78-2.57,3.55s-2.72,1.16-4.56,1.16c-2.28,0-4.16-.66-5.62-1.99s-2.2-3.14-2.2-5.43c0-2.43,.74-4.32,2.21-5.66s3.42-2.02,5.82-2.02c2.1,0,3.81,.53,5.12,1.58,.78,.62,1.37,1.52,1.76,2.69l-3.43,.7c-.2-.76-.63-1.36-1.27-1.79-.64-.44-1.43-.66-2.35-.66-1.27,0-2.31,.39-3.1,1.17-.79,.78-1.19,2.04-1.19,3.78,0,1.85,.39,3.16,1.17,3.94s1.8,1.17,3.05,1.17c.92,0,1.71-.25,2.38-.75s1.14-1.28,1.43-2.35Z"/>
    <path class="cls-1" d="M351.15,107.48v-2.8h3.29v2.8h-3.29Z"/>
  </g>
</svg>