<?xml version="1.0" encoding="UTF-8"?>
<svg id="Layer_1" data-name="Layer 1" xmlns="http://www.w3.org/2000/svg" viewBox="0 0 107.51 107.5">
  <defs>
    <style>
      .cls-1 {
        fill: #8e9f7d;
      }
    </style>
  </defs>
  <path class="cls-1" d="M77.07,107.5c-.91-.5-1.13-1.31-1.16-2.28-.14-4.22-1.96-7.73-4.65-10.87-2.5-2.92-5.51-5.26-8.6-7.5-1.03-.75-1.26-1.71-.68-2.51,.57-.8,1.59-.89,2.59-.1,2.21,1.72,4.47,3.39,6.53,5.26,3.33,3.02,6.01,6.53,7.31,10.94,.16,.55,.31,1.1,.47,1.68,1.53-1.19,1.56-1.19,1.01-2.88-1.39-4.27-2.99-8.43-6.06-11.86-.87-.97-.57-2.38,.56-2.62,.58-.12,1.39,.12,1.89,.48,2.31,1.7,4.55,3.5,6.81,5.26,1.4,1.09,2.8,2.17,4.14,3.22,1.6-1.61,3.13-3.15,4.91-4.95-.25-.15-.63-.29-.91-.55-.84-.79-1.72-1.57-2.42-2.47-.33-.43-.51-1.21-.36-1.7,.14-.44,.81-.94,1.29-.99,.49-.05,1.14,.31,1.54,.68,1.05,.96,2.01,2.02,2.98,3.02,.98-.97,1.85-1.83,2.75-2.71-.12-.1-.22-.2-.33-.26-4.26-2.1-7.85-5.09-11.22-8.38-.94-.92-1.06-1.82-.35-2.57,.68-.72,1.65-.63,2.59,.22,1.24,1.13,2.46,2.29,3.74,3.37,2.28,1.93,4.74,3.59,7.5,4.76,.27,.12,.73,.17,.92,.02,.84-.66,1.62-1.4,2.61-2.27-1.09-.31-1.8-.48-2.48-.7-4.08-1.32-7.46-3.75-10.21-6.93-2.81-3.25-5.31-6.76-7.9-10.18-1.96-2.59-3.85-5.24-5.8-7.84-2.45-3.26-6.76-3.41-10.67-1.44,.21,.08,.36,.16,.52,.2,2.39,.57,4.34,1.89,6.08,3.55,.75,.72,.79,1.65,.15,2.34-.58,.63-1.47,.67-2.27,.08-.34-.25-.62-.59-.98-.79-1.24-.69-2.43-1.56-3.77-1.97-2.27-.7-4.51-.28-6.73,.87,1.1,1.1,2.1,2.08,3.09,3.06,.22,.22,.45,.44,.65,.68,.62,.76,.61,1.64-.02,2.26-.62,.61-1.56,.66-2.26-.03-1.21-1.2-2.35-2.48-3.65-3.86-1.16,2.28-1.53,4.36-1.09,6.56,.38,1.96,1.49,3.51,2.8,4.96,.74,.82,.69,1.82-.02,2.42-.74,.63-1.66,.54-2.41-.31-.62-.71-1.28-1.41-1.74-2.23-.76-1.35-1.38-2.78-2.08-4.23-.27,.85-.6,1.7-.8,2.58-.74,3.17-.23,6,2.47,8.12,1.87,1.47,3.79,2.86,5.69,4.3,.95,.72,1.18,1.65,.61,2.44-.58,.81-1.5,.92-2.5,.2-1.76-1.26-3.51-2.55-5.23-3.86-4.18-3.19-5.46-7.36-4.04-12.37,.48-1.7,1.16-3.34,1.76-5.06-2.28-.01-3.87-1.28-5.21-2.94-1.42-1.76-1.72-3.75-.85-5.81,.33-.78,.16-1.15-.37-1.68C29.95,38.09,16.69,24.82,3.41,11.57c-1.38-1.38-2.78-2.73-3.41-4.66v-2.31c.18-.41,.34-.82,.53-1.22C2.26-.37,6.91-1.16,10,1.83c3.11,3.02,6.15,6.13,9.21,9.2,.2,.2,.39,.41,.53,.65,.4,.7,.3,1.36-.26,1.91-.56,.55-1.24,.66-1.92,.23-.35-.22-.65-.52-.95-.82-2.83-2.82-5.65-5.64-8.47-8.45-.32-.32-.66-.63-1.04-.88-.79-.53-1.65-.54-2.48-.1-.88,.46-1.47,1.27-1.26,2.22,.18,.83,.65,1.71,1.25,2.31,13.58,13.64,27.2,27.25,40.81,40.86,.24,.24,.5,.46,.62,.57,1.2-1.21,2.35-2.36,3.6-3.62-.22-.18-.56-.43-.86-.73-8.82-8.81-17.63-17.61-26.44-26.43-.32-.32-.66-.64-.9-1.02-.45-.7-.38-1.42,.21-2,.6-.59,1.31-.63,2.01-.17,.34,.23,.64,.55,.93,.84,8.94,8.93,17.87,17.86,26.79,26.82,.54,.55,.92,.66,1.69,.35,2.06-.85,4.06-.56,5.81,.87,1.65,1.34,2.92,2.92,2.93,5.28,.33-.13,.58-.24,.84-.33,1.75-.6,3.46-1.38,5.25-1.75,3.99-.84,7.66-.08,10.34,3.22,2.4,2.95,4.52,6.13,6.84,9.15,2.55,3.32,5.03,6.73,7.84,9.83,3.29,3.63,7.43,5.89,12.49,6.08,.88,.03,1.7,.18,2.03,1.16,.32,.93-.24,1.51-.83,2.1-3.72,3.71-7.43,7.42-11.14,11.14-2.18,2.18-4.35,4.36-6.54,6.53-1,.99-1.64,1.02-2.76,.19-.42-.31-.83-.64-1.25-.96-1.16-.9-2.32-1.81-3.56-2.77,.8,2.55,1.61,4.92,2.27,7.34,.15,.54-.01,1.41-.38,1.8-1.64,1.76-3.41,3.4-5.13,5.08h-1.05Zm-28.36-49.23c1.13,.58,2.17,.14,3.03-.72,1.96-1.95,3.92-3.89,5.85-5.86,1.32-1.35,1.25-2.73-.11-4.13-1.45-1.48-2.83-1.61-4.2-.29-2.04,1.97-4.04,3.97-6,6.02-.48,.5-.71,1.22-.94,1.62,.21,1.8,1.16,2.74,2.36,3.36Z"/>
  <path class="cls-1" d="M40.34,94.85c0,.7-.05,1.4,.01,2.09,.08,.98,.74,1.59,1.63,1.56,.95-.03,1.52-.58,1.56-1.5,.07-1.46,.08-2.93,0-4.38-.05-.99-.76-1.57-1.65-1.51-.96,.06-1.45,.66-1.53,1.55-.07,.73-.01,1.46-.01,2.19Z"/>
  <path class="cls-1" d="M40.34,83.4c0,.7-.04,1.4,0,2.09,.07,.99,.7,1.62,1.57,1.64,.86,.03,1.59-.57,1.64-1.55,.07-1.42,.08-2.86,0-4.28-.05-1.02-.7-1.58-1.6-1.58-.92,0-1.56,.64-1.62,1.69-.04,.66,0,1.32,0,1.99,0,0,0,0,0,0Z"/>
  <path class="cls-1" d="M47.58,87.52c-.7,0-1.4-.03-2.09,0-.95,.05-1.46,.62-1.55,1.53-.09,.85,.6,1.61,1.54,1.64,1.46,.05,2.93,.05,4.39,0,.89-.03,1.51-.76,1.51-1.58,0-.82-.62-1.51-1.51-1.58-.76-.05-1.53-.01-2.3-.01,0,0,0,0,0,0Z"/>
  <path class="cls-1" d="M36.25,87.52c-.73,0-1.47-.04-2.19,.01-.89,.06-1.5,.73-1.51,1.56,0,.83,.59,1.56,1.48,1.59,1.5,.06,3,.06,4.49,0,.88-.04,1.47-.77,1.45-1.61-.02-.85-.6-1.48-1.52-1.54-.73-.05-1.46,0-2.19,0Z"/>
  <path class="cls-1" d="M64.06,99.01c0-.89-.73-1.59-1.62-1.57-.89,.01-1.58,.73-1.56,1.62,.02,.9,.71,1.57,1.61,1.56,.9-.01,1.57-.71,1.57-1.61Z"/>
  <path class="cls-1" d="M80.66,46.3c-.27-1.01-.44-2.05-.65-3.07-.66-3.22-2.62-5.16-5.82-5.85-.99-.21-1.99-.38-2.97-.62-1.69-.42-2.62-1.54-2.62-3.08,0-1.55,.91-2.64,2.62-3.08,.91-.23,1.84-.4,2.77-.58,3.38-.67,5.36-2.63,6.04-5.99,.2-.99,.37-1.99,.63-2.97,.41-1.57,1.62-2.52,3.08-2.5,1.45,.02,2.57,.9,3,2.46,.27,.97,.43,1.98,.63,2.97,.67,3.36,2.67,5.37,6.01,6.03,.92,.18,1.86,.34,2.77,.57,1.74,.44,2.73,1.63,2.69,3.14-.04,1.53-.98,2.62-2.69,3.04-.88,.22-1.77,.39-2.66,.57-3.52,.71-5.45,2.64-6.14,6.14-.22,1.09-.42,2.2-.76,3.26-.42,1.32-1.52,2.04-2.86,2.06-1.49,.02-2.67-.9-3.08-2.49Zm3.06-23.7c-.82,6.62-4.47,10.28-11.11,11.07,6.62,.81,10.3,4.43,11.09,11.09,.83-6.59,4.44-10.3,11.08-11.09-6.62-.81-10.24-4.47-11.06-11.07Z"/>
  <path class="cls-1" d="M101.49,46.25c-.87,.02-1.55,.74-1.55,1.63,0,.92,.77,1.66,1.67,1.61,.86-.05,1.54-.8,1.51-1.68-.03-.87-.78-1.58-1.63-1.56Z"/>
  <path class="cls-1" d="M88.85,57.19c0,.88,.73,1.6,1.6,1.59,.9-.01,1.6-.71,1.6-1.59,0-.9-.69-1.59-1.59-1.59-.89,0-1.61,.7-1.61,1.58Z"/>
  <path class="cls-1" d="M97.98,62.63c-.01,.86,.73,1.6,1.6,1.6,.86,0,1.62-.75,1.62-1.6,0-.86-.74-1.58-1.62-1.59-.89,0-1.59,.69-1.6,1.59Z"/>
</svg>