<?xml version="1.0" encoding="iso-8859-1"?>
<!-- Generator: Adobe Illustrator 19.0.0, SVG Export Plug-In . SVG Version: 6.00 Build 0)  -->
<svg version="1.1" id="Layer_1" xmlns="http://www.w3.org/2000/svg" xmlns:xlink="http://www.w3.org/1999/xlink" x="0px" y="0px"
	 viewBox="0 0 290.627 290.627" style="enable-background:new 0 0 290.627 290.627;" xml:space="preserve">
<g>
	<g>
		<g>
			<path d="M65.626,70.313h9.375c0-15.511,12.614-28.125,28.125-28.125v-9.375c-15.511,0-28.125-12.615-28.125-28.125h-9.375
				c0,15.511-12.614,28.125-28.125,28.125v9.375C53.012,42.188,65.626,54.802,65.626,70.313z M70.314,22.828
				c3.417,6.155,8.512,11.255,14.672,14.672c-6.155,3.417-11.255,8.517-14.672,14.672c-3.418-6.155-8.513-11.255-14.672-14.672
				C61.801,34.083,66.896,28.983,70.314,22.828z"/>
			<path d="M290.626,159.375V18.75h-0.239C289.206,8.231,280.36,0,269.532,0h-28.125c-10.828,0-19.673,8.231-20.855,18.75h-0.239
				v101.044c-2.77-1.612-5.944-2.606-9.375-2.606h-38.602c6.881-8.559,17.414-14.063,29.227-14.063V93.75
				c-20.677,0-37.5-16.823-37.5-37.5h-9.375c0,20.677-16.823,37.5-37.5,37.5v9.375c11.813,0,22.35,5.503,29.227,14.063H18.751
				c-10.341,0-18.75,8.409-18.75,18.75c0,9.694,7.425,17.602,16.87,18.558c4.275,45.933,40.233,82.734,85.748,88.411
				c-1.027,4.28-4.134,10.219-13.556,10.219H60.939c-11.348,0-32.813,6.858-32.813,32.813v4.688h262.5v-4.688
				c0-25.955-21.464-32.813-32.813-32.813c-0.384,0-9.375-0.159-9.375-14.063V210.52
				C260.311,208.861,290.626,200.573,290.626,159.375z M229.688,21.094c0-6.459,5.255-11.719,11.719-11.719h28.125
				c6.464,0,11.719,5.259,11.719,11.719v11.719h-51.563V21.094z M137.612,98.438c9.469-4.598,17.161-12.3,21.764-21.764
				c4.598,9.469,12.295,17.166,21.764,21.764c-9.469,4.598-17.161,12.3-21.764,21.764
				C154.778,110.738,147.081,103.036,137.612,98.438z M18.751,145.313c-5.17,0-9.375-4.205-9.375-9.375s4.205-9.375,9.375-9.375
				h133.177c1.767,4.345,2.761,9.089,2.761,14.063h9.375c0-4.973,0.994-9.717,2.761-14.063h44.114c5.17,0,9.375,4.205,9.375,9.375
				s-4.205,9.375-9.375,9.375h-7.031H25.782H18.751z M26.284,154.688h177.117c-4.697,44.719-42.614,79.688-88.556,79.688
				S30.985,199.406,26.284,154.688z M257.813,262.501c0.886,0,20.292,0.23,23.1,18.75H37.834
				c2.691-18.042,20.897-18.731,23.105-18.75h28.125c15.459,0,21.417-10.65,22.973-18.891c0.942,0.023,1.861,0.141,2.808,0.141
				c51.178,0,93.319-39.272,97.973-89.255c9.445-0.956,16.87-8.864,16.87-18.558v-93.75h51.563v117.188
				c0,41.488-35.981,42.177-37.5,42.187h-4.688v37.5C239.063,257.602,251.326,262.501,257.813,262.501z"/>
			<rect x="42.189" y="164.063" width="9.375" height="9.375"/>
			<rect x="60.939" y="164.063" width="9.375" height="9.375"/>
			<rect x="79.689" y="164.063" width="9.375" height="9.375"/>
		</g>
	</g>
</g>
<g>
</g>
<g>
</g>
<g>
</g>
<g>
</g>
<g>
</g>
<g>
</g>
<g>
</g>
<g>
</g>
<g>
</g>
<g>
</g>
<g>
</g>
<g>
</g>
<g>
</g>
<g>
</g>
<g>
</g>
</svg>
