<?xml version="1.0" standalone="no"?>
<!DOCTYPE svg PUBLIC "-//W3C//DTD SVG 20010904//EN"
 "http://www.w3.org/TR/2001/REC-SVG-20010904/DTD/svg10.dtd">
<svg version="1.0" xmlns="http://www.w3.org/2000/svg"
 width="512.000000pt" height="512.000000pt" viewBox="0 0 512.000000 512.000000"
 preserveAspectRatio="xMidYMid meet">
<metadata>
Created by potrace 1.14, written by Peter Selinger 2001-2017
</metadata>
<g transform="translate(0.000000,512.000000) scale(0.100000,-0.100000)"
fill="#000000" stroke="none">
<path d="M2360 5114 c-202 -24 -306 -41 -425 -71 -912 -228 -1630 -946 -1858
-1858 -55 -222 -72 -365 -72 -625 0 -260 17 -403 72 -625 228 -912 946 -1630
1858 -1858 222 -55 365 -72 625 -72 260 0 403 17 625 72 912 228 1630 946
1858 1858 55 222 72 365 72 625 0 260 -17 403 -72 625 -225 902 -929 1614
-1828 1851 -207 54 -368 75 -610 79 -115 2 -226 1 -245 -1z m-603 -724 c153
-25 321 -90 543 -210 370 -200 615 -259 783 -188 26 12 57 32 67 46 28 35 26
87 -4 117 -49 49 -130 42 -296 -28 -69 -29 -84 -31 -185 -31 -134 0 -206 23
-272 89 -37 36 -43 48 -43 83 0 55 24 62 85 26 58 -33 96 -30 227 22 188 74
390 52 520 -56 21 -17 51 -59 70 -97 117 -238 -81 -462 -388 -439 -140 10
-237 45 -522 187 -144 73 -265 130 -267 127 -3 -2 8 -56 23 -119 26 -109 27
-126 26 -364 l0 -250 -62 -410 c-94 -633 -115 -818 -116 -1045 -1 -209 9 -271
58 -343 28 -41 91 -77 136 -77 75 0 142 71 133 139 -7 52 10 81 47 81 21 0 35
-9 51 -31 29 -41 22 -107 -20 -193 -79 -162 -209 -196 -361 -95 -80 54 -131
116 -185 224 -113 231 -137 413 -116 905 14 342 34 484 138 1005 50 254 56
295 61 446 6 204 8 200 -124 219 -269 38 -627 -56 -784 -206 -77 -73 -120 -71
-120 7 0 73 149 234 305 330 187 115 396 161 592 129z m1928 -904 c273 -93
434 -294 490 -615 52 -297 -47 -686 -199 -780 -42 -26 -86 -27 -135 -2 -115
59 -186 230 -184 446 1 127 20 209 82 359 23 54 41 105 41 113 0 8 -9 34 -20
59 -25 54 -15 84 29 84 58 0 141 -146 163 -283 15 -99 -1 -313 -37 -496 -14
-69 -23 -127 -21 -129 9 -8 46 19 80 59 65 76 99 225 99 429 0 162 -15 236
-77 365 -69 142 -147 203 -318 247 -145 36 -288 14 -428 -68 -81 -47 -241
-202 -314 -303 -111 -154 -218 -397 -246 -558 -31 -180 6 -327 98 -388 79 -52
281 -99 552 -130 267 -30 450 -77 561 -144 90 -55 174 -144 217 -231 36 -72
37 -76 37 -190 0 -109 -2 -120 -36 -201 -62 -153 -116 -236 -219 -339 -78 -79
-112 -104 -186 -142 -229 -118 -422 -129 -507 -29 -34 41 -41 69 -34 136 9 85
71 188 211 350 86 99 154 203 162 247 8 43 31 78 50 78 9 0 29 -13 45 -29 33
-33 38 -79 18 -173 -22 -102 -49 -142 -269 -407 -38 -47 -70 -89 -70 -94 0
-15 80 3 157 35 154 63 279 170 378 322 99 152 148 298 131 391 -9 47 -57 78
-161 106 -70 19 -120 22 -395 29 -246 6 -331 11 -390 25 -369 87 -619 441
-596 845 7 125 24 197 75 305 165 351 469 636 764 716 108 29 292 22 402 -15z"/>
</g>
</svg>
